<?xml version="1.0" encoding="UTF-8" standalone="no"?>
<!-- Created with Inkscape (http://www.inkscape.org/) -->

<svg
   xmlns:dc="http://purl.org/dc/elements/1.1/"
   xmlns:cc="http://creativecommons.org/ns#"
   xmlns:rdf="http://www.w3.org/1999/02/22-rdf-syntax-ns#"
   xmlns:svg="http://www.w3.org/2000/svg"
   xmlns="http://www.w3.org/2000/svg"
   xmlns:sodipodi="http://sodipodi.sourceforge.net/DTD/sodipodi-0.dtd"
   xmlns:inkscape="http://www.inkscape.org/namespaces/inkscape"
   width="90.657799mm"
   height="20.000006mm"
   viewBox="0 0 321.22842 70.866162"
   id="svg2"
   version="1.1"
   inkscape:version="0.91 r13725"
   sodipodi:docname="a_text.svg">
  <defs
     id="defs4">
    <filter
       style="color-interpolation-filters:sRGB"
       inkscape:label="Greyscale"
       id="filter4709">
      <feColorMatrix
         values="0 0 0 0 0 0 0 0 0 0 0 0 0 0 0 -0.21 -0.72 -0.072 1 0 "
         id="feColorMatrix4711" />
    </filter>
    <filter
       id="filter4709-3"
       inkscape:label="Greyscale"
       style="color-interpolation-filters:sRGB">
      <feColorMatrix
         id="feColorMatrix4711-7"
         values="0 0 0 0 0 0 0 0 0 0 0 0 0 0 0 -0.21 -0.72 -0.072 1 0 " />
    </filter>
  </defs>
  <sodipodi:namedview
     id="base"
     pagecolor="#ffffff"
     bordercolor="#666666"
     borderopacity="1.0"
     inkscape:pageopacity="0.0"
     inkscape:pageshadow="2"
     inkscape:zoom="1.4"
     inkscape:cx="140.91983"
     inkscape:cy="7.8116849"
     inkscape:document-units="px"
     inkscape:current-layer="layer1-3"
     showgrid="false"
     showguides="true"
     inkscape:guide-bbox="true"
     inkscape:object-nodes="true"
     inkscape:snap-text-baseline="true"
     inkscape:window-width="1331"
     inkscape:window-height="744"
     inkscape:window-x="35"
     inkscape:window-y="24"
     inkscape:window-maximized="1"
     inkscape:snap-bbox="true"
     inkscape:bbox-nodes="true"
     fit-margin-top="0"
     fit-margin-left="0"
     fit-margin-right="0"
     fit-margin-bottom="0">
    <inkscape:grid
       type="xygrid"
       id="grid4584"
       originx="-368.23266"
       originy="-565.1261" />
  </sodipodi:namedview>
  <metadata
     id="metadata7">
    <rdf:RDF>
      <cc:Work
         rdf:about="">
        <dc:format>image/svg+xml</dc:format>
        <dc:type
           rdf:resource="http://purl.org/dc/dcmitype/StillImage" />
        <dc:title></dc:title>
      </cc:Work>
    </rdf:RDF>
  </metadata>
  <g
     inkscape:label="Layer 1"
     inkscape:groupmode="layer"
     id="layer1"
     transform="translate(-368.23267,-416.36998)">
    <g
       transform="translate(91.722756,-284.34856)"
       id="layer1-3"
       inkscape:label="Layer 1">
      <g
         id="g5167">
        <path
           d="m 381.81042,761.92785 -6.46037,0 0,-4.82899 -4.82896,4.82899 -6.46038,0 -5.61204,-5.67729 0,-11.22411 5.61204,-5.67729 10.63678,0 -5.35102,5.61205 -4.50269,0 0,11.28935 10.50627,0 0,-22.51341 -17.74971,0 4.82896,-5.6773 13.76908,0 5.61204,5.6773 0,28.1907 z"
           style="font-style:normal;font-variant:normal;font-weight:normal;font-stretch:normal;font-size:medium;line-height:125%;font-family:Iceberg;-inkscape-font-specification:Iceberg;text-align:start;letter-spacing:0px;word-spacing:0px;text-anchor:start;fill:#42b883;fill-opacity:1;stroke:none;stroke-width:1px;stroke-linecap:butt;stroke-linejoin:miter;stroke-opacity:1"
           id="path4793"
           inkscape:connector-curvature="0" />
        <path
           d="m 415.35214,761.92785 -6.39511,0 0,-4.82899 -4.69845,4.82899 -6.59089,0 -5.61203,-5.67729 0,-22.51341 5.61203,-5.6773 11.28934,0 0,-11.28933 6.39511,-6.39512 0,51.55245 z m -6.39511,-5.67729 0,-27.40763 -4.95947,4.89422 -5.48153,0 0,22.51341 10.441,0 z"
           style="font-style:normal;font-variant:normal;font-weight:normal;font-stretch:normal;font-size:medium;line-height:125%;font-family:Iceberg;-inkscape-font-specification:Iceberg;text-align:start;letter-spacing:0px;word-spacing:0px;text-anchor:start;fill:#42b883;fill-opacity:1;stroke:none;stroke-width:1px;stroke-linecap:butt;stroke-linejoin:miter;stroke-opacity:1"
           id="path4795"
           inkscape:connector-curvature="0" />
        <path
           d="m 449.38227,761.92785 -17.68445,0 -5.61203,-5.67729 0,-22.51341 5.61203,-5.6773 12.07242,0 5.61203,5.6773 0,11.2893 -5.61203,5.61206 -10.44101,0 5.74255,-5.61206 3.91538,0 0,-11.2893 -10.44101,0 0,22.51341 16.83612,0 0,5.67729 z"
           style="font-style:normal;font-variant:normal;font-weight:normal;font-stretch:normal;font-size:medium;line-height:125%;font-family:Iceberg;-inkscape-font-specification:Iceberg;text-align:start;letter-spacing:0px;word-spacing:0px;text-anchor:start;fill:#42b883;fill-opacity:1;stroke:none;stroke-width:1px;stroke-linecap:butt;stroke-linejoin:miter;stroke-opacity:1"
           id="path4797"
           inkscape:connector-curvature="0" />
        <path
           d="m 481.7708,761.92785 -6.39511,0 0,-28.1907 -10.44101,0 0,28.1907 -6.46037,0 0,-33.868 6.46037,0 0,4.89422 4.76371,-4.89422 6.46037,0 5.61204,5.6773 0,28.1907 z"
           style="font-style:normal;font-variant:normal;font-weight:normal;font-stretch:normal;font-size:medium;line-height:125%;font-family:Iceberg;-inkscape-font-specification:Iceberg;text-align:start;letter-spacing:0px;word-spacing:0px;text-anchor:start;fill:#42b883;fill-opacity:1;stroke:none;stroke-width:1px;stroke-linecap:butt;stroke-linejoin:miter;stroke-opacity:1"
           id="path4799"
           inkscape:connector-curvature="0" />
        <path
           d="m 515.27582,756.25056 -5.61204,5.67729 -12.07242,0 -5.61203,-5.67729 0,-22.51341 5.61203,-5.6773 12.07242,0 5.61204,5.6773 0,22.51341 z m -6.39512,0 0,-22.51341 -10.441,0 0,22.51341 10.441,0 z"
           style="font-style:normal;font-variant:normal;font-weight:normal;font-stretch:normal;font-size:medium;line-height:125%;font-family:Iceberg;-inkscape-font-specification:Iceberg;text-align:start;letter-spacing:0px;word-spacing:0px;text-anchor:start;fill:#42b883;fill-opacity:1;stroke:none;stroke-width:1px;stroke-linecap:butt;stroke-linejoin:miter;stroke-opacity:1"
           id="path4801"
           inkscape:connector-curvature="0" />
        <path
           d="m 547.7551,752.92252 -9.07064,9.00533 -5.28575,0 -9.00537,-9.00533 0,-26.42882 6.39512,6.46037 0,18.92435 5.28576,5.08996 5.2205,-5.08996 0,-18.92435 6.46038,-6.46037 0,26.42882 z"
           style="font-style:normal;font-variant:normal;font-weight:normal;font-stretch:normal;font-size:medium;line-height:125%;font-family:Iceberg;-inkscape-font-specification:Iceberg;text-align:start;letter-spacing:0px;word-spacing:0px;text-anchor:start;fill:#42b883;fill-opacity:1;stroke:none;stroke-width:1px;stroke-linecap:butt;stroke-linejoin:miter;stroke-opacity:1"
           id="path4803"
           inkscape:connector-curvature="0" />
        <path
           sodipodi:nodetypes="ccccc"
           d="m 563.83873,761.92785 -6.46037,0 0,-28.90852 6.46037,-6.52563 z"
           style="font-style:normal;font-weight:normal;font-size:medium;line-height:125%;font-family:sans-serif;text-align:start;letter-spacing:0px;word-spacing:0px;text-anchor:start;fill:#35495e;fill-opacity:1;stroke:none;stroke-width:1px;stroke-linecap:butt;stroke-linejoin:miter;stroke-opacity:1"
           id="path4805"
           inkscape:connector-curvature="0" />
        <path
           d="m 597.73834,761.92785 -6.39511,0 0,-4.82899 -4.69845,4.82899 -6.59089,0 -5.61203,-5.67729 0,-22.51341 5.61203,-5.6773 11.28934,0 0,-11.28933 6.39511,-6.39512 0,51.55245 z m -6.39511,-5.67729 0,-27.40763 -4.95948,4.89422 -5.48153,0 0,22.51341 10.44101,0 z"
           style="font-style:normal;font-weight:normal;font-size:medium;line-height:125%;font-family:sans-serif;text-align:start;letter-spacing:0px;word-spacing:0px;text-anchor:start;fill:#35495e;fill-opacity:1;stroke:none;stroke-width:1px;stroke-linecap:butt;stroke-linejoin:miter;stroke-opacity:1"
           id="path4807"
           inkscape:connector-curvature="0" />
        <path
           inkscape:connector-curvature="0"
           id="path4817"
           style="font-style:normal;font-variant:normal;font-weight:normal;font-stretch:normal;font-size:medium;line-height:125%;font-family:Iceberg;-inkscape-font-specification:Iceberg;text-align:start;letter-spacing:0px;word-spacing:0px;text-anchor:start;opacity:0.15;fill:#35495e;fill-opacity:1;stroke:none;stroke-width:1px;stroke-linecap:butt;stroke-linejoin:miter;stroke-opacity:1"
           d="m 481.7708,761.92785 -6.39511,0 0,-28.1907 -10.44101,0 0,28.1907 -6.46037,0 0,-33.868 6.46037,0 0,4.89422 4.76371,-4.89422 6.46037,0 5.61204,5.6773 0,28.1907 z" />
        <path
           inkscape:connector-curvature="0"
           id="path4819"
           style="font-style:normal;font-variant:normal;font-weight:normal;font-stretch:normal;font-size:medium;line-height:125%;font-family:Iceberg;-inkscape-font-specification:Iceberg;text-align:start;letter-spacing:0px;word-spacing:0px;text-anchor:start;opacity:0.3;fill:#35495e;fill-opacity:1;stroke:none;stroke-width:1px;stroke-linecap:butt;stroke-linejoin:miter;stroke-opacity:1"
           d="m 515.27582,756.25056 -5.61204,5.67729 -12.07242,0 -5.61203,-5.67729 0,-22.51341 5.61203,-5.6773 12.07242,0 5.61204,5.6773 0,22.51341 z m -6.39512,0 0,-22.51341 -10.441,0 0,22.51341 10.441,0 z" />
        <path
           inkscape:connector-curvature="0"
           id="path4821"
           style="font-style:normal;font-variant:normal;font-weight:normal;font-stretch:normal;font-size:medium;line-height:125%;font-family:Iceberg;-inkscape-font-specification:Iceberg;text-align:start;letter-spacing:0px;word-spacing:0px;text-anchor:start;opacity:0.45;fill:#35495e;fill-opacity:1;stroke:none;stroke-width:1px;stroke-linecap:butt;stroke-linejoin:miter;stroke-opacity:1"
           d="m 547.7551,752.92252 -9.07064,9.00533 -5.28575,0 -9.00537,-9.00533 0,-26.42882 6.39512,6.46037 0,18.92435 5.28576,5.08996 5.2205,-5.08996 0,-18.92435 6.46038,-6.46037 0,26.42882 z" />
      </g>
      <g
         transform="translate(241.85288,-239.6357)"
         id="layer1-5"
         inkscape:label="Layer 1">
        <path
           style="fill:#42b883;fill-opacity:1;fill-rule:evenodd;stroke:none;stroke-width:1px;stroke-linecap:butt;stroke-linejoin:miter;stroke-opacity:1"
           d="M 65.34297,958.07078 50,966.92904 l 0,17.71655 15.34297,8.8583 L 50,1002.3621 l -15.34297,8.8583 0,-53.14962 30.68594,-17.71654 30.68594,17.71654 0,53.14962 -30.68594,-17.71651 15.34297,-8.8583 0,-17.71655 z"
           id="path4417"
           inkscape:connector-curvature="0" />
        <path
           style="opacity:0.45;fill:#35495e;fill-opacity:1;fill-rule:evenodd;stroke:none;stroke-width:1px;stroke-linecap:butt;stroke-linejoin:miter;stroke-opacity:1"
           d="M 34.65703,993.50385 50,1002.3621 l -15.34297,8.8583 z"
           id="path4419"
           inkscape:connector-curvature="0" />
        <path
           inkscape:connector-curvature="0"
           id="path4421"
           d="M 34.65703,975.78732 50,984.64559 34.65703,993.50386 Z"
           style="opacity:0.15;fill:#35495e;fill-opacity:1;fill-rule:evenodd;stroke:none;stroke-width:1px;stroke-linecap:butt;stroke-linejoin:miter;stroke-opacity:1" />
        <path
           style="opacity:0.3;fill:#35495e;fill-opacity:1;fill-rule:evenodd;stroke:none;stroke-width:1px;stroke-linecap:butt;stroke-linejoin:miter;stroke-opacity:1"
           d="M 50,984.64559 34.65703,993.50386 50,1002.3621 Z"
           id="path4423"
           inkscape:connector-curvature="0" />
        <path
           inkscape:connector-curvature="0"
           id="path4425"
           d="M 50,984.64559 65.34297,993.50386 50,1002.3621 Z"
           style="opacity:0.375;fill:#35495e;fill-opacity:1;fill-rule:evenodd;stroke:none;stroke-width:1px;stroke-linecap:butt;stroke-linejoin:miter;stroke-opacity:1" />
        <path
           style="opacity:0.375;fill:#35495e;fill-opacity:1;fill-rule:evenodd;stroke:none;stroke-width:1px;stroke-linecap:butt;stroke-linejoin:miter;stroke-opacity:1"
           d="m 80.68593,984.64559 -15.34297,8.85827 15.34297,8.85824 z"
           id="path4427"
           inkscape:connector-curvature="0" />
        <path
           inkscape:connector-curvature="0"
           id="path4429"
           d="m 80.68593,984.64558 15.34297,8.85827 -15.34297,8.85825 z"
           style="opacity:0.3;fill:#35495e;fill-opacity:1;fill-rule:evenodd;stroke:none;stroke-width:1px;stroke-linecap:butt;stroke-linejoin:miter;stroke-opacity:1" />
        <path
           style="opacity:0.15;fill:#35495e;fill-opacity:1;fill-rule:evenodd;stroke:none;stroke-width:1px;stroke-linecap:butt;stroke-linejoin:miter;stroke-opacity:1"
           d="m 96.0289,975.78732 -15.34297,8.85827 15.34297,8.85827 z"
           id="path4431"
           inkscape:connector-curvature="0" />
        <path
           inkscape:connector-curvature="0"
           id="path4433"
           d="m 96.0289,993.50385 -15.34297,8.85825 15.34297,8.8583 z"
           style="opacity:0.45;fill:#35495e;fill-opacity:1;fill-rule:evenodd;stroke:none;stroke-width:1px;stroke-linecap:butt;stroke-linejoin:miter;stroke-opacity:1" />
      </g>
    </g>
  </g>
</svg>
