<svg xmlns="http://www.w3.org/2000/svg" width="484" height="99" viewBox="0 0 484 99">
    <defs>
        <linearGradient id="a" x1="38.715%" y1="36.946%" y2="100%">
            <stop offset="0%" stop-opacity="0"/>
            <stop offset="10.271%" stop-opacity=".054"/>
            <stop offset="19.657%" stop-opacity=".106"/>
            <stop offset="30.31%" stop-opacity=".192"/>
            <stop offset="38.65%" stop-opacity=".245"/>
            <stop offset="100%"/>
        </linearGradient>
    </defs>
    <g fill="none" fill-rule="evenodd">
        <path fill="#E42E2C" d="M15.064 85.316c8.848 8.868 21.072 14.352 34.573 14.352 13.502 0 25.726-5.484 34.574-14.352l69.148-69.296c-8.848-8.867-21.072-14.352-34.574-14.352-13.502 0-25.726 5.485-34.574 14.352C75.363 7.153 63.14 1.668 49.638 1.668c-29.015 0-47.375 21.863-48.89 49.727.192 13.242 5.626 25.213 14.316 33.921z"/>
        <path fill="url(#a)" d="M84.534 15.16C75.652 6.256 63.381.748 49.827.748 20.7.748 2.269 22.703.748 50.684c.193 13.298 5.648 25.32 14.37 34.064L84.535 15.16z" transform="translate(0 .92)"/>
        <g>
            <path fill="#E42E2C" d="M161 45.951c.03-15.456 12.556-27.976 28.005-27.976 15.466 0 28.004 12.55 28.004 28.03 0 15.481-12.538 28.03-28.004 28.03-7.839 0-14.924-3.224-20.007-8.419v25.286H161V45.951zm28.058-20.08c-11.078 0-20.06 8.99-20.06 20.08 0 11.09 8.982 20.079 20.06 20.079 11.08 0 20.061-8.99 20.061-20.079 0-11.09-8.982-20.08-20.06-20.08zm35.949 19.797h.002c.18-15.325 12.648-27.693 28.002-27.693 2.519 0 4.96.332 7.281.956l-2.039 7.619a20.065 20.065 0 0 0-5.188-.678c-10.984 0-19.907 8.837-20.058 19.796h-.002v28.367h-7.998V45.67zm43.284-27.786h7.998v56.153h-7.998V17.882zm4.046-6.881a5.038 5.038 0 0 1-5.036-5.04 5.038 5.038 0 0 1 5.036-5.04 5.038 5.038 0 0 1 5.036 5.04 5.038 5.038 0 0 1-5.036 5.04zm44.47 54.046l-4.462 8.943-4.479-8.943-23.58-47.078-.042-.087h8.94l.043.087 19.101 38.136 19.027-38.136.043-.087h8.94l-.043.087-23.488 47.078zm55.066 0l-23.58-47.078-.043-.087h8.941l.043.087 19.101 38.136 19.027-38.136.043-.087h8.94l-.043.087-23.488 47.078-4.462 8.943-8.438 16.912h-8.94l12.9-25.855z"/>
            <path fill="#676767" d="M412.3 17.882h7.999v56.153H412.3V17.882zm4.047-6.881a5.038 5.038 0 0 1-5.036-5.04 5.038 5.038 0 0 1 5.036-5.04 5.038 5.038 0 0 1 5.036 5.04 5.038 5.038 0 0 1-5.036 5.04zm39.954 6.974c7.839 0 14.924 3.224 20.007 8.419V.944h7.998v44.724h-.005c.002.112.005.224.005.337 0 15.48-12.538 28.03-28.005 28.03-15.467 0-28.005-12.55-28.005-28.03 0-15.481 12.538-28.03 28.005-28.03zm20.11 27.693h-.104v-1.81c-1.045-10.106-9.579-17.986-19.952-17.986-11.079 0-20.06 8.99-20.06 20.079 0 11.09 8.981 20.079 20.06 20.079 11.079 0 20.06-8.99 20.06-20.079 0-.095-.002-.189-.003-.283z"/>
        </g>
    </g>
</svg>
